<svg version="1.1" id="mouth" xmlns="http://www.w3.org/2000/svg" xmlns:xlink="http://www.w3.org/1999/xlink" x="0px" y="0px"
	 width="100%" viewBox="0 0 600 377" enable-background="new 0 0 600 377" xml:space="preserve">
<path fill="#FAD6D7" opacity="1.000000" stroke="none" 
	d="
M404.468658,378.000000 
	C407.219940,369.449829 410.501984,360.922119 413.613678,352.332733 
	C414.340973,350.325195 414.662689,348.125641 414.877747,345.984955 
	C416.186493,332.958527 410.046051,325.796814 396.912170,324.974518 
	C394.422150,324.818634 391.911072,324.957611 389.427582,324.748505 
	C382.917114,324.200287 378.510223,319.408081 378.701416,313.234406 
	C378.889679,307.155670 383.144592,302.870056 389.648926,302.583832 
	C397.433533,302.241241 405.228943,302.144379 413.723785,302.014038 
	C422.783325,302.093872 431.988159,306.869720 439.107086,297.646606 
	C440.471832,305.948334 446.996033,302.560883 451.694489,302.775848 
	C456.509979,302.996185 462.613342,305.195648 464.257263,297.124115 
	C467.692963,302.912231 467.692963,302.912292 474.566864,302.914734 
	C476.232849,302.915344 477.899658,302.948975 479.564667,302.908722 
	C484.138489,302.798187 489.839935,304.686859 490.086639,295.894989 
	C491.768158,304.856506 497.910461,303.116150 503.029205,302.834625 
	C507.921875,302.565552 514.332031,305.743073 515.984985,298.103638 
	C517.842834,299.705444 519.481934,302.340332 521.181885,302.380219 
	C530.229126,302.592346 539.796570,292.649139 540.043701,283.571625 
	C540.130127,280.397247 538.939209,279.030121 535.696350,279.046204 
	C529.705750,279.075958 523.713928,278.866394 518.108887,278.570435 
	C524.114075,278.297668 529.739258,278.015137 535.349915,278.192688 
	C539.129028,278.312286 540.355347,276.886292 539.986877,273.240234 
	C539.405273,267.485962 539.093811,261.704346 538.717896,255.508209 
	C538.641235,253.663193 538.514832,252.244278 538.418335,250.608124 
	C538.437988,250.081665 538.333496,249.808380 538.167664,249.248932 
	C538.132935,248.284180 538.065369,247.641525 538.043396,246.539078 
	C537.655151,239.034119 537.221313,231.988968 536.825073,224.508057 
	C536.231506,214.120392 535.592957,204.168915 534.970215,194.216461 
	C532.261047,150.919724 529.662903,107.615372 526.679871,64.337524 
	C526.393311,60.179752 523.724060,56.186211 521.976318,51.820053 
	C518.743347,45.587032 513.586853,42.569763 507.334625,41.038631 
	C499.197113,39.045803 498.593109,39.390335 496.474518,47.358227 
	C496.440430,47.486465 495.927460,47.487370 495.637817,47.547020 
	C494.075317,40.031048 494.075317,40.031414 485.760651,40.026421 
	C483.762421,40.025223 481.764160,40.019970 479.765930,40.017899 
	C472.342743,40.010193 472.347839,40.011616 470.629517,47.195690 
	C470.585388,47.380127 470.118805,47.463528 469.556458,47.735847 
	C469.369507,46.915318 468.995300,46.148308 469.061676,45.421532 
	C469.482697,40.810818 467.035889,39.731068 462.977234,39.978054 
	C458.995148,40.220379 454.980499,40.188396 450.993042,40.001179 
	C447.575165,39.840702 445.596985,41.081287 445.144867,44.569839 
	C445.007874,45.626690 444.629425,46.652241 444.228241,48.209705 
	C441.359131,40.038300 441.359131,40.038219 432.139130,40.023663 
	C430.973480,40.021824 429.806488,39.984840 428.642456,40.027966 
	C426.320587,40.113979 423.663666,39.586529 421.779083,40.551090 
	C420.074341,41.423634 419.213593,43.945244 418.592865,44.848679 
	C416.593323,43.224545 414.728302,40.428188 412.652924,40.262207 
	C406.213623,39.747219 399.694427,40.231644 393.206238,40.328239 
	C391.722595,40.225842 390.230957,40.188847 388.756683,40.009521 
	C382.919800,39.299572 378.932159,35.134575 378.701385,29.566925 
	C378.456635,23.662277 382.112610,18.831608 388.112518,18.181801 
	C391.549591,17.809553 392.696716,16.616528 392.485046,13.299849 
	C392.243073,9.508286 392.358368,5.693923 392.159210,1.444733 
	C461.627747,1.000000 531.255493,1.000000 600.941650,1.000000 
	C600.941650,126.557495 600.941650,252.115021 600.941650,378.000000 
	C535.646118,378.000000 470.291718,378.000000 404.468658,378.000000 
M565.179749,262.157806 
	C565.118042,264.982330 565.285645,267.833862 564.956909,270.626984 
	C563.023376,287.055725 556.649109,296.885986 543.369324,301.129974 
	C538.668945,302.632141 533.590942,302.915619 528.747070,304.024780 
	C526.884888,304.451172 525.194458,305.627594 523.425781,306.462280 
	C525.144043,307.628906 526.796082,309.694397 528.590637,309.826721 
	C553.502686,311.663452 575.409058,288.029510 571.785278,263.336578 
	C571.577515,261.920929 570.469360,260.019379 569.301270,259.558685 
	C568.370178,259.191467 566.707947,260.678253 565.179749,262.157806 
M512.687561,30.988094 
	C515.334656,31.127254 518.046326,30.944714 520.617737,31.460888 
	C532.164978,33.778786 538.300659,41.683258 541.908264,52.271767 
	C542.439880,53.831970 544.226257,54.964653 545.432068,56.295151 
	C546.188354,54.500263 547.927307,52.462254 547.552429,50.947239 
	C542.572083,30.818111 526.633545,22.835615 508.100250,25.215603 
	C507.176727,25.334196 505.669403,26.514725 505.693542,27.153196 
	C505.734650,28.242363 506.530609,29.743502 507.458038,30.249544 
	C508.674591,30.913370 510.326111,30.780027 512.687561,30.988094 
z"/>
<path fill="#F8D6D7" opacity="1.000000" stroke="none" 
	d="
M303.071259,269.882080 
	C301.593048,273.911377 299.851868,277.867340 298.702057,281.988251 
	C297.209473,287.337646 295.205505,292.804626 295.129639,298.244812 
	C294.763428,324.513153 294.970642,350.789459 294.987244,377.531494 
	C258.645782,378.000000 222.291550,378.000000 185.433578,377.532471 
	C184.921509,350.772461 184.893066,324.479919 184.932449,298.187500 
	C184.936951,295.185089 185.007980,292.381317 181.016083,292.033203 
	C181.016083,292.033203 180.699890,291.783264 180.288452,291.474579 
	C173.017441,288.009460 166.157898,284.853027 159.298355,281.696594 
	C159.298355,281.696594 159.277542,281.629486 159.024582,281.387238 
	C152.186493,278.110107 145.601349,275.075256 139.016220,272.040375 
	C138.527252,271.749268 138.038284,271.458160 137.023224,270.884613 
	C131.449646,268.266205 126.402184,265.930267 121.354721,263.594299 
	C121.354721,263.594299 121.316666,263.588135 121.090256,263.325012 
	C117.681770,261.260193 114.499695,259.458466 111.317612,257.656769 
	C111.317612,257.656769 111.149368,257.918976 111.078552,257.561340 
	C110.675827,257.121735 110.343925,257.039795 110.012024,256.957825 
	C110.012024,256.957825 110.008553,257.006897 109.834167,256.714111 
	C106.885399,254.838257 104.111015,253.255219 101.336639,251.672180 
	C101.336639,251.672180 101.303818,251.658264 101.155975,251.425903 
	C100.682411,251.105484 100.356697,251.017395 100.030975,250.929321 
	C100.030975,250.929321 100.020508,250.994781 99.854385,250.693802 
	C96.917877,248.796661 94.147491,247.200500 91.377098,245.604340 
	C91.377098,245.604340 91.335052,245.603210 91.124603,245.329773 
	C87.714600,243.250870 84.515053,241.445404 81.315498,239.639938 
	C81.315498,239.639938 81.219101,239.720779 81.044449,239.405273 
	C72.583443,234.858231 69.154175,228.086212 69.586494,218.836105 
	C69.948555,211.089111 69.647179,203.311111 70.036621,195.449371 
	C77.341553,193.306305 80.846626,189.869034 80.924553,183.865219 
	C81.023003,176.279846 80.504692,168.686493 80.588158,160.877045 
	C85.996857,158.217850 90.881439,159.790634 95.766441,161.354355 
	C95.766441,161.354355 95.791222,161.251419 95.907249,161.548706 
	C96.889580,162.371567 97.755882,162.897125 98.622177,163.422684 
	C98.622177,163.422684 98.820602,163.226776 98.772476,163.538452 
	C98.897858,164.142273 99.152275,164.315399 99.487617,164.369507 
	C99.487617,164.369507 99.492012,164.482407 99.682922,164.801849 
	C101.324844,169.753571 103.723999,174.324158 104.030251,179.030930 
	C104.675453,188.947067 104.243965,198.934616 104.209969,208.892715 
	C104.200111,211.780533 104.398315,214.381866 108.452896,213.658508 
	C108.697800,208.778992 108.528778,204.256409 109.098160,199.828766 
	C109.345947,197.901962 110.675377,195.484482 112.265701,194.476196 
	C117.377243,191.235428 120.166069,186.995926 119.950790,180.902573 
	C119.716316,174.265823 119.456429,167.629990 119.513840,160.735321 
	C125.441818,158.153091 130.602554,159.857910 135.679871,162.291809 
	C135.679871,162.291809 135.688797,162.364456 135.883972,162.637421 
	C137.622467,164.469788 139.165771,166.029205 140.709076,167.588623 
	C140.709076,167.588623 140.739563,167.841812 140.864502,168.328476 
	C141.602753,172.200989 142.662231,175.575958 142.745178,178.974762 
	C142.987595,188.906555 142.765579,198.849045 142.923615,208.784195 
	C142.948425,210.343689 144.005020,211.886780 144.584534,213.437454 
	C144.584534,213.437454 144.586884,213.526184 144.800262,213.777878 
	C145.977402,214.437225 146.941132,214.844864 148.727859,215.600632 
	C148.727859,208.494568 148.727859,202.121201 149.109436,195.607742 
	C157.605011,192.663116 160.106750,189.386292 159.998932,180.837204 
	C159.915771,174.242233 159.425812,167.652374 159.461151,160.837875 
	C166.307083,157.892578 172.018036,160.011856 177.504669,163.505066 
	C177.504669,163.505066 177.606873,163.385696 177.667145,163.677338 
	C177.918762,164.242935 178.179840,164.403549 178.510620,164.450836 
	C178.658920,164.362228 178.807205,164.273605 178.843475,164.612946 
	C179.412842,165.768341 180.094223,166.495773 180.775604,167.223221 
	C180.775604,167.223221 180.846344,167.134583 180.854218,167.545715 
	C181.585068,171.483917 182.830856,174.996094 182.931702,178.540848 
	C183.219467,188.654160 183.170578,198.783173 182.978561,208.900772 
	C182.908630,212.586426 184.429230,214.348663 188.637619,215.195923 
	C188.637619,208.505005 188.637619,202.116714 189.017502,195.581161 
	C194.864227,193.829041 199.445663,190.745621 199.739655,184.788101 
	C200.128174,176.914841 199.381943,168.985596 199.462799,160.849091 
	C206.021240,157.909851 211.580002,159.940720 216.993591,163.013367 
	C216.993591,163.013367 217.000610,162.998779 217.098618,163.261414 
	C217.641037,163.844818 218.085434,164.165588 218.529846,164.486343 
	C218.659821,164.323898 218.789810,164.161453 218.832504,164.523743 
	C219.424347,165.771347 220.103485,166.494186 220.782639,167.217041 
	C220.782639,167.217041 220.855011,167.127426 220.857040,167.540482 
	C221.594269,171.636841 222.852493,175.304413 222.963715,179.006470 
	C223.261902,188.931061 222.948196,198.873215 223.180222,208.801331 
	C223.222961,210.630630 224.189941,213.154602 225.584198,214.104034 
	C230.072311,217.160278 234.959702,219.630157 239.693146,222.326141 
	C239.693146,222.326141 239.777679,222.254684 239.941986,222.572815 
	C244.096405,224.769043 248.086502,226.647141 252.224182,228.872528 
	C254.676514,229.948441 257.117859,231.586334 259.264709,231.263794 
	C278.859741,228.320038 295.195312,238.398758 300.594818,257.321198 
	C301.761810,261.410736 302.263245,265.690125 303.071259,269.882080 
z"/>
<path fill="#9B4B49" opacity="1.000000" stroke="none" 
	d="
M522.160889,52.116428 
	C523.724060,56.186211 526.393311,60.179752 526.679871,64.337524 
	C529.662903,107.615372 532.261047,150.919724 534.970215,194.216461 
	C535.592957,204.168915 536.231506,214.120392 536.375610,224.533508 
	C525.783569,225.859573 515.641418,226.420761 505.581543,227.653381 
	C485.436310,230.121735 465.336060,232.957458 445.217255,235.641510 
	C443.355530,204.442001 441.494598,173.242447 439.631836,142.042984 
	C438.492340,122.957542 437.354462,103.871994 436.206696,84.787048 
	C435.777588,77.651756 435.322510,70.518021 435.372803,62.872124 
	C438.679840,62.174305 441.494293,61.814175 444.306732,61.829060 
	C466.836548,61.948303 489.365814,62.161827 511.895569,62.296352 
	C522.219727,62.357998 522.220032,62.306896 522.160889,52.116428 
z"/>
<path fill="#E58081" opacity="1.000000" stroke="none" 
	d="
M444.795288,235.793243 
	C465.336060,232.957458 485.436310,230.121735 505.581543,227.653381 
	C515.641418,226.420761 525.783569,225.859573 536.338013,224.969238 
	C537.221313,231.988968 537.655151,239.034119 537.747681,246.352600 
	C529.450745,241.840332 520.487122,239.798019 511.568420,240.224335 
	C495.848907,240.975769 480.084442,242.379486 464.538452,244.795044 
	C441.233978,248.416107 418.171051,253.879211 394.373810,252.926910 
	C387.658295,252.658157 380.978394,251.500015 374.282135,250.749802 
	C374.212830,251.160629 374.143494,251.571442 374.074188,251.982269 
	C378.708405,252.747620 383.330719,253.595825 387.978851,254.264328 
	C411.072815,257.585663 434.082794,256.571594 456.963745,252.456116 
	C476.636902,248.917587 496.340729,245.685089 516.406921,247.104156 
	C524.593933,247.683136 533.204407,248.086243 538.668091,255.934311 
	C539.093811,261.704346 539.405273,267.485962 539.986877,273.240234 
	C540.355347,276.886292 539.129028,278.312286 535.349915,278.192688 
	C529.739258,278.015137 524.114075,278.297668 517.715820,278.647400 
	C509.270050,278.631226 501.603485,278.352051 493.670410,277.859314 
	C492.984192,277.377655 492.581818,277.076477 492.142242,276.846313 
	C478.214386,269.553925 464.614807,273.397125 450.594269,278.188110 
	C440.089142,278.327576 430.030182,278.348541 419.971252,278.364349 
	C413.032043,278.375244 413.032043,278.372040 412.484344,285.159515 
	C386.489258,285.737427 362.401337,279.456329 340.683655,264.937256 
	C333.469482,260.114288 327.072327,254.269394 326.230865,245.027252 
	C325.874390,241.111984 326.544952,236.548294 328.332520,233.100464 
	C333.031555,224.037170 342.995392,222.260330 349.915131,229.654007 
	C357.953705,238.243103 367.885223,240.532654 378.744934,240.995865 
	C400.814758,241.937256 422.600586,238.978500 444.795288,235.793243 
z"/>
<path fill="#FEFBFB" opacity="1.000000" stroke="none" 
	d="
M412.571259,285.607666 
	C413.032043,278.372040 413.032043,278.375244 419.971252,278.364349 
	C430.030182,278.348541 440.089142,278.327576 450.926727,278.279846 
	C452.398682,278.271027 453.092010,278.291168 454.166138,278.456482 
	C457.334747,278.550598 460.122528,278.499573 463.306885,278.628052 
	C467.112457,278.669586 470.520752,278.438354 473.930573,278.414276 
	C479.947113,278.371765 485.964539,278.455566 492.205933,278.546356 
	C492.773254,278.626160 493.041901,278.494324 493.417236,278.206177 
	C493.598297,278.201569 493.936890,278.072876 493.936890,278.072876 
	C501.603485,278.352051 509.270050,278.631226 517.329651,278.833466 
	C523.713928,278.866394 529.705750,279.075958 535.696350,279.046204 
	C538.939209,279.030121 540.130127,280.397247 540.043701,283.571625 
	C539.796570,292.649139 530.229126,302.592346 521.181885,302.380219 
	C519.481934,302.340332 517.842834,299.705444 515.984985,298.103638 
	C514.332031,305.743073 507.921875,302.565552 503.029205,302.834625 
	C497.910461,303.116150 491.768158,304.856506 490.086639,295.894989 
	C489.839935,304.686859 484.138489,302.798187 479.564667,302.908722 
	C477.899658,302.948975 476.232849,302.915344 474.566864,302.914734 
	C467.692963,302.912292 467.692963,302.912231 464.257263,297.124115 
	C462.613342,305.195648 456.509979,302.996185 451.694489,302.775848 
	C446.996033,302.560883 440.471832,305.948334 439.107086,297.646606 
	C431.988159,306.869720 422.783325,302.093872 414.080566,301.815979 
	C413.374847,296.381897 413.016510,291.218872 412.571259,285.607666 
z"/>
<path fill="#FEFEFD" opacity="1.000000" stroke="none" 
	d="
M521.976318,51.820053 
	C522.220032,62.306896 522.219727,62.357998 511.895569,62.296352 
	C489.365814,62.161827 466.836548,61.948303 444.306732,61.829060 
	C441.494293,61.814175 438.679840,62.174305 435.395813,62.436920 
	C422.877106,62.473011 410.828918,62.447834 398.780853,62.386681 
	C392.304504,62.353809 392.324799,62.326843 392.601349,56.099129 
	C392.822021,51.129910 392.985840,46.158169 393.190552,40.757893 
	C399.694427,40.231644 406.213623,39.747219 412.652924,40.262207 
	C414.728302,40.428188 416.593323,43.224545 418.592865,44.848679 
	C419.213593,43.945244 420.074341,41.423634 421.779083,40.551090 
	C423.663666,39.586529 426.320587,40.113979 428.642456,40.027966 
	C429.806488,39.984840 430.973480,40.021824 432.139130,40.023663 
	C441.359131,40.038219 441.359131,40.038300 444.228241,48.209705 
	C444.629425,46.652241 445.007874,45.626690 445.144867,44.569839 
	C445.596985,41.081287 447.575165,39.840702 450.993042,40.001179 
	C454.980499,40.188396 458.995148,40.220379 462.977234,39.978054 
	C467.035889,39.731068 469.482697,40.810818 469.061676,45.421532 
	C468.995300,46.148308 469.369507,46.915318 469.556458,47.735847 
	C470.118805,47.463528 470.585388,47.380127 470.629517,47.195690 
	C472.347839,40.011616 472.342743,40.010193 479.765930,40.017899 
	C481.764160,40.019970 483.762421,40.025223 485.760651,40.026421 
	C494.075317,40.031414 494.075317,40.031048 495.637817,47.547020 
	C495.927460,47.487370 496.440430,47.486465 496.474518,47.358227 
	C498.593109,39.390335 499.197113,39.045803 507.334625,41.038631 
	C513.586853,42.569763 518.743347,45.587032 521.976318,51.820053 
z"/>
<path fill="#E4C0C0" opacity="1.000000" stroke="none" 
	d="
M303.335052,269.622986 
	C302.263245,265.690125 301.761810,261.410736 300.594818,257.321198 
	C295.195312,238.398758 278.859741,228.320038 259.264709,231.263794 
	C257.117859,231.586334 254.676514,229.948441 252.435455,228.623947 
	C261.931671,222.853195 271.842865,223.214691 282.435059,226.119614 
	C282.584320,223.773438 282.787231,222.022614 282.792419,220.271194 
	C282.828278,208.166504 283.000031,196.058060 282.754272,183.958435 
	C282.635712,178.120087 283.606689,172.791290 286.976044,167.982147 
	C286.976044,167.982147 287.001282,167.999710 287.223816,167.898560 
	C287.740143,167.598724 287.906158,167.323074 287.944366,166.970444 
	C287.944366,166.970444 287.995300,166.999466 288.309387,166.865799 
	C291.086456,165.419281 293.549408,164.106430 296.012360,162.793579 
	C296.446899,162.769394 296.881409,162.745193 298.048767,162.729111 
	C301.530945,163.221146 304.280365,163.705048 306.936646,164.586044 
	C306.528931,172.052963 305.916382,179.125595 305.983032,186.191818 
	C306.050323,193.323929 309.903595,197.117584 317.219849,198.270996 
	C317.259338,210.903809 317.318787,223.536621 317.329865,236.169449 
	C317.335419,242.540909 314.458862,247.537613 309.045502,250.580658 
	C305.563538,252.537979 304.752380,254.829819 304.928955,258.591583 
	C305.096130,262.153717 304.089325,265.770905 303.335052,269.622986 
z"/>
<path fill="#F6FCFC" opacity="1.000000" stroke="none" 
	d="
M119.207619,160.993759 
	C119.456429,167.629990 119.716316,174.265823 119.950790,180.902573 
	C120.166069,186.995926 117.377243,191.235428 112.265701,194.476196 
	C110.675377,195.484482 109.345947,197.901962 109.098160,199.828766 
	C108.528778,204.256409 108.697800,208.778992 108.414291,213.187317 
	C108.221207,198.474304 108.180931,183.837036 108.140663,169.199753 
	C108.140663,169.199753 108.393951,168.885956 108.627945,168.503021 
	C108.924973,167.767914 108.987991,167.415756 109.051010,167.063599 
	C109.051018,167.063599 109.264450,166.863419 109.524139,166.556915 
	C109.896820,165.895874 110.009804,165.541336 110.122803,165.186798 
	C110.122803,165.186798 110.206802,165.164230 110.438858,164.993622 
	C110.938461,164.341797 111.206009,163.860580 111.473564,163.379379 
	C111.473564,163.379379 111.380882,163.340576 111.628616,163.294785 
	C112.154579,163.043076 112.312057,162.768082 112.348793,162.423996 
	C112.348793,162.423996 112.419060,162.419815 112.654839,162.300049 
	C113.060387,161.901611 113.230164,161.622955 113.399933,161.344299 
	C113.399940,161.344299 113.308159,161.341690 113.589523,161.305115 
	C114.268417,160.869690 114.665947,160.470856 115.063477,160.072037 
	C115.063484,160.072037 115.001221,160.001221 115.398209,160.022583 
	C116.932678,160.360535 118.070145,160.677139 119.207619,160.993759 
z"/>
<path fill="#F8FDFD" opacity="1.000000" stroke="none" 
	d="
M317.551941,197.971939 
	C309.903595,197.117584 306.050323,193.323929 305.983032,186.191818 
	C305.916382,179.125595 306.528931,172.052963 307.183685,164.463104 
	C307.701691,163.633575 307.879608,163.324081 308.057495,163.014603 
	C308.492462,162.992661 308.927460,162.970718 309.773621,163.146118 
	C310.184814,163.343475 310.545166,163.401382 310.545166,163.401382 
	C310.545166,163.401382 310.686646,163.190231 310.776489,163.565262 
	C311.511292,164.364944 312.156189,164.789612 312.801117,165.214264 
	C312.801117,165.214264 312.973541,165.051559 312.960693,165.408173 
	C313.512665,166.304413 314.077515,166.844025 314.642334,167.383652 
	C314.642334,167.383652 314.651123,167.310074 314.682800,167.596954 
	C315.092285,168.305359 315.470093,168.726883 315.847931,169.148392 
	C319.839417,178.420090 317.817017,188.121048 317.551941,197.971939 
z"/>
<path fill="#F9FEFD" opacity="1.000000" stroke="none" 
	d="
M80.252419,161.096558 
	C80.504692,168.686493 81.023003,176.279846 80.924553,183.865219 
	C80.846626,189.869034 77.341553,193.306305 69.834961,195.308121 
	C69.236244,195.264359 68.815620,195.017960 68.815620,195.017960 
	C68.813065,187.987686 68.810509,180.957397 68.919769,173.123901 
	C69.460724,170.709396 69.889870,169.098114 70.319016,167.486832 
	C70.319023,167.486832 70.503075,167.408508 70.713058,167.145691 
	C71.117615,166.394974 71.312195,165.907074 71.506775,165.419189 
	C71.506775,165.419189 71.238556,165.255676 71.566742,165.252991 
	C72.085091,164.849228 72.275269,164.448151 72.465446,164.047089 
	C72.605644,163.912338 72.745842,163.777603 73.274261,163.276215 
	C74.139076,162.317047 74.615669,161.724503 75.092255,161.131973 
	C75.092255,161.131973 75.064713,161.067062 75.425392,160.995544 
	C77.274857,160.981537 78.763634,161.039047 80.252419,161.096558 
z"/>
<path fill="#F9FEFE" opacity="1.000000" stroke="none" 
	d="
M159.116699,161.060242 
	C159.425812,167.652374 159.915771,174.242233 159.998932,180.837204 
	C160.106750,189.386292 157.605011,192.663116 148.829559,195.205170 
	C148.129700,187.006638 148.091309,179.070633 148.226349,170.832977 
	C149.071289,168.805603 149.742813,167.079834 150.414337,165.354080 
	C150.284744,165.242859 150.155136,165.131622 150.473724,165.029480 
	C151.316422,164.377396 151.710938,163.716232 152.105453,163.055084 
	C152.411087,162.948883 152.652283,162.760284 153.172668,162.194397 
	C153.711212,161.615768 153.906143,161.332016 154.101074,161.048248 
	C154.101074,161.048248 154.038132,161.028061 154.378540,160.968964 
	C156.184875,160.959991 157.650787,161.010117 159.116699,161.060242 
z"/>
<path fill="#F9FEFE" opacity="1.000000" stroke="none" 
	d="
M199.123474,161.080414 
	C199.381943,168.985596 200.128174,176.914841 199.739655,184.788101 
	C199.445663,190.745621 194.864227,193.829041 188.770264,195.166229 
	C188.381409,184.558762 185.622543,173.923248 191.180862,164.108292 
	C191.180862,164.108292 191.110870,164.112579 191.362549,164.034790 
	C191.772171,163.646881 191.930099,163.336777 192.088043,163.026672 
	C192.399857,162.941864 192.645920,162.765381 193.175781,162.203842 
	C193.725906,161.622467 193.926498,161.334473 194.127090,161.046494 
	C194.290604,160.975769 194.454117,160.905029 195.088257,160.553162 
	C196.747086,160.541473 197.935272,160.810944 199.123474,161.080414 
z"/>
<path fill="#DD7272" opacity="1.000000" stroke="none" 
	d="
M538.717896,255.508209 
	C533.204407,248.086243 524.593933,247.683136 516.406921,247.104156 
	C496.340729,245.685089 476.636902,248.917587 456.963745,252.456116 
	C434.082794,256.571594 411.072815,257.585663 387.978851,254.264328 
	C383.330719,253.595825 378.708405,252.747620 374.074188,251.982269 
	C374.143494,251.571442 374.212830,251.160629 374.282135,250.749802 
	C380.978394,251.500015 387.658295,252.658157 394.373810,252.926910 
	C418.171051,253.879211 441.233978,248.416107 464.538452,244.795044 
	C480.084442,242.379486 495.848907,240.975769 511.568420,240.224335 
	C520.487122,239.798019 529.450745,241.840332 537.702148,246.812408 
	C538.065369,247.641525 538.132935,248.284180 538.180908,249.467590 
	C538.195740,250.292191 538.271423,250.564514 538.388428,250.825348 
	C538.514832,252.244278 538.641235,253.663193 538.717896,255.508209 
z"/>
<path fill="#E7C0C0" opacity="1.000000" stroke="none" 
	d="
M565.275024,261.749939 
	C566.707947,260.678253 568.370178,259.191467 569.301270,259.558685 
	C570.469360,260.019379 571.577515,261.920929 571.785278,263.336578 
	C575.409058,288.029510 553.502686,311.663452 528.590637,309.826721 
	C526.796082,309.694397 525.144043,307.628906 523.425781,306.462280 
	C525.194458,305.627594 526.884888,304.451172 528.747070,304.024780 
	C533.590942,302.915619 538.668945,302.632141 543.369324,301.129974 
	C556.649109,296.885986 563.023376,287.055725 564.956909,270.626984 
	C565.285645,267.833862 565.118042,264.982330 565.275024,261.749939 
z"/>
<path fill="#E7BFBF" opacity="1.000000" stroke="none" 
	d="
M512.239075,30.988819 
	C510.326111,30.780027 508.674591,30.913370 507.458038,30.249544 
	C506.530609,29.743502 505.734650,28.242363 505.693542,27.153196 
	C505.669403,26.514725 507.176727,25.334196 508.100250,25.215603 
	C526.633545,22.835615 542.572083,30.818111 547.552429,50.947239 
	C547.927307,52.462254 546.188354,54.500263 545.432068,56.295147 
	C544.226257,54.964653 542.439880,53.831970 541.908264,52.271767 
	C538.300659,41.683258 532.164978,33.778786 520.617737,31.460888 
	C518.046326,30.944714 515.334656,31.127254 512.239075,30.988819 
z"/>
<path fill="#E58081" opacity="1.000000" stroke="none" 
	d="
M538.418335,250.608124 
	C538.271423,250.564514 538.195740,250.292191 538.148010,249.789703 
	C538.333496,249.808380 538.437988,250.081665 538.418335,250.608124 
z"/>
<path fill="#9A4C4D" opacity="1.000000" stroke="none" 
	d="
M493.670410,277.859314 
	C493.936890,278.072876 493.598297,278.201569 493.191620,278.132812 
	C492.438873,278.056183 492.171082,278.196991 491.981598,278.486511 
	C485.964539,278.455566 479.947113,278.371765 473.930573,278.414276 
	C470.520752,278.438354 467.112457,278.669586 462.954895,278.466858 
	C459.399323,278.187897 456.592316,278.249634 453.785309,278.311340 
	C453.092010,278.291168 452.398682,278.271027 451.372925,278.159119 
	C464.614807,273.397125 478.214386,269.553925 492.142242,276.846313 
	C492.581818,277.076477 492.984192,277.377655 493.670410,277.859314 
z"/>
<path fill="#E58081" opacity="1.000000" stroke="none" 
	d="
M454.166138,278.456482 
	C456.592316,278.249634 459.399323,278.187897 462.558350,278.287354 
	C460.122528,278.499573 457.334747,278.550598 454.166138,278.456482 
z"/>
<path fill="#E58081" opacity="1.000000" stroke="none" 
	d="
M492.205933,278.546387 
	C492.171082,278.196991 492.438873,278.056183 493.010559,278.137421 
	C493.041901,278.494324 492.773254,278.626160 492.205933,278.546387 
z"/>
</svg>